<?xml version="1.0" encoding="UTF-8"?>
<svg width="1192px" height="2532px" viewBox="0 0 1192 2532" version="1.1" xmlns="http://www.w3.org/2000/svg" xmlns:xlink="http://www.w3.org/1999/xlink">
    <title>Group 3</title>
    <defs>
        <linearGradient x1="50%" y1="0%" x2="50%" y2="100%" id="linearGradient-1">
            <stop stop-color="#01082B" offset="0%"></stop>
            <stop stop-color="#1BB05C" offset="100%"></stop>
        </linearGradient>
        <path d="M710.314,678.001785 L1134.362,1029.86026 L1134.51275,1029.73429 L1163.99789,1054.19976 L1163.847,1054.32526 L1164,1054.45218 L1134.51488,1078.91804 L1134.362,1078.79126 L715.913,1426.00178 L1170,1426.00195 L1170,1530.00195 L241.275,1530.00178 L637.341917,1856.00195 L460.416,1856.00195 L31.791,1503.20238 L31.6379715,1503.3279 L1.99999997,1478.93298 L2.15299997,1478.80738 L1.99999997,1478.68128 L31.6379715,1454.28636 L31.791,1454.41238 L457.513,1104.00178 L1.99999998,1104.00195 L1.99999998,1000.00195 L922.653,1000.00178 L535.000215,678.341949 L593.378,678.341949 L592.967288,678.001949 L710.314,678.001785 Z M539.902,1426.00178 L927.966,1104.00178 L634.149,1104.00178 L242.942,1426.00178 L539.902,1426.00178 Z" id="path-2"></path>
        <filter x="-1.3%" y="-1.6%" width="103.6%" height="103.6%" filterUnits="objectBoundingBox" id="filter-3">
            <feOffset dx="6" dy="2" in="SourceAlpha" result="shadowOffsetOuter1"></feOffset>
            <feGaussianBlur stdDeviation="6" in="shadowOffsetOuter1" result="shadowBlurOuter1"></feGaussianBlur>
            <feColorMatrix values="0 0 0 0 0   0 0 0 0 0   0 0 0 0 0  0 0 0 0.5 0" type="matrix" in="shadowBlurOuter1"></feColorMatrix>
        </filter>
    </defs>
    <g id="Page-1" stroke="none" stroke-width="1" fill="none" fill-rule="evenodd">
        <g id="Group-3" transform="translate(4.000000, -0.001949)">
            <rect id="Rectangle" fill="url(#linearGradient-1)" x="0" y="8.52651283e-14" width="1170" height="2532"></rect>
            <g id="Combined-Shape">
                <use fill="black" fill-opacity="1" filter="url(#filter-3)" xlink:href="#path-2"></use>
                <use fill="#D8D8D8" fill-rule="evenodd" xlink:href="#path-2"></use>
            </g>
        </g>
    </g>
</svg>